<mxfile host="app.diagrams.net" modified="2023-03-26T13:15:26.170Z" agent="Mozilla/5.0 (Macintosh; Intel Mac OS X 10_15_7) AppleWebKit/537.36 (KHTML, like Gecko) Chrome/111.0.0.0 Safari/537.36" version="21.1.1" etag="_mcbveqVtr69B6RFPQ5c" type="github">
  <diagram name="‫עמוד-1‬" id="e0q4awuRBHQ19-fH9dte">
    <mxGraphModel>
      <root>
        <mxCell id="0" />
        <mxCell id="1" parent="0" />
      </root>
    </mxGraphModel>
  </diagram>
</mxfile>
